<?xml version="1.0" encoding="UTF-8" standalone="no"?>
<!-- Created with Inkscape (http://www.inkscape.org/) -->

<svg
   xmlns:dc="http://purl.org/dc/elements/1.1/"
   xmlns:cc="http://creativecommons.org/ns#"
   xmlns:rdf="http://www.w3.org/1999/02/22-rdf-syntax-ns#"
   xmlns:svg="http://www.w3.org/2000/svg"
   xmlns="http://www.w3.org/2000/svg"
   xmlns:sodipodi="http://sodipodi.sourceforge.net/DTD/sodipodi-0.dtd"
   xmlns:inkscape="http://www.inkscape.org/namespaces/inkscape"
   width="500"
   height="100"
   viewBox="0 0 132.29166 26.458334"
   version="1.1"
   id="svg8"
   inkscape:version="0.92.4 (5da689c313, 2019-01-14)"
   sodipodi:docname="logo.svg">
  <defs
     id="defs2" />
  <sodipodi:namedview
     id="base"
     pagecolor="#ffffff"
     bordercolor="#666666"
     borderopacity="1.0"
     inkscape:pageopacity="0.0"
     inkscape:pageshadow="2"
     inkscape:zoom="0.98994949"
     inkscape:cx="319.79698"
     inkscape:cy="112.63601"
     inkscape:document-units="mm"
     inkscape:current-layer="layer1"
     showgrid="false"
     inkscape:window-width="1366"
     inkscape:window-height="704"
     inkscape:window-x="0"
     inkscape:window-y="27"
     inkscape:window-maximized="1"
     units="px" />
  <metadata
     id="metadata5">
    <rdf:RDF>
      <cc:Work
         rdf:about="">
        <dc:format>image/svg+xml</dc:format>
        <dc:type
           rdf:resource="http://purl.org/dc/dcmitype/StillImage" />
        <dc:title></dc:title>
      </cc:Work>
    </rdf:RDF>
  </metadata>
  <g
     inkscape:label="Layer 1"
     inkscape:groupmode="layer"
     id="layer1"
     transform="translate(0,-270.54165)">
    <path
       inkscape:connector-curvature="0"
       style="fill:#49cde6;stroke-width:0.16011363"
       d="m 8.9625154,275.22657 c -3.0178779,6.7e-4 -3.271328,0.0238 -3.8874474,0.35276 -1.0614297,0.5667 -1.0202058,0.33356 -1.8622595,1.51952 0,0 -0.6400173,1.06601 -0.6811077,1.4895 -0.1820965,1.87599 -0.049407,5.5727 -0.049407,5.5727 -0.054404,6.121 0.021596,6.89816 0.7758644,7.93938 0.5220237,0.72064 0.9899636,1.0697 1.8769564,1.40006 0.3908813,0.14557 1.0756471,0.20567 1.9710875,0.17293 1.1319415,-0.0414 1.4964603,-0.12292 2.0817898,-0.46595 0.3902464,-0.22871 0.8362101,-0.55603 0.9910171,-0.72709 0.269273,-0.29753 0.265686,-0.34662 -0.08037,-1.1336 -0.1989377,-0.45244 -0.4085877,-0.8244 -0.4659547,-0.82622 -0.05735,-0.002 -0.2453223,0.23524 -0.417797,0.52756 -0.4120124,0.69831 -1.2279421,1.06982 -2.350419,1.06982 -1.1184685,0 -2.0560652,-0.44515 -2.4479872,-1.16238 -0.2563933,-0.4692 -0.2836376,-1.06982 -0.2836376,-6.2829 0,-5.76235 1.595e-4,-5.76417 0.3762045,-6.40048 0.7351822,-1.24406 1.4168997,-1.49716 4.0766425,-1.51294 l 2.0511445,-0.0121 0.720823,-0.55038 c 0.39642,-0.30271 0.806303,-0.58105 0.910961,-0.61857 0.104687,-0.0375 0.129967,-0.13205 0.05628,-0.21015 -0.07368,-0.0781 -1.586752,-0.14167 -3.3623879,-0.14135 z m 5.3043886,1.53141 c -0.103925,3.2e-4 -0.235057,0.0143 -0.407788,0.0337 -0.981028,0.11057 -1.113598,0.29526 -0.656092,0.91408 0.63168,0.85439 0.518372,1.76521 -0.577285,4.64548 -0.519238,1.36498 -1.039273,2.59573 -1.155818,2.73476 -0.152307,0.18165 -0.212026,0.84618 -0.212026,2.36168 0,1.1924 0.06472,2.10868 0.148855,2.10868 0.152287,0 0.913174,-1.88103 2.812934,-6.95462 0.957988,-2.55854 1.068126,-2.96903 1.008216,-3.76268 -0.03697,-0.48997 -0.200781,-1.16885 -0.364008,-1.50888 -0.217297,-0.45266 -0.285209,-0.57325 -0.596988,-0.57228 z"
       id="path886"
       inkscape:export-xdpi="41.919998"
       inkscape:export-ydpi="41.919998" />
    <path
       inkscape:connector-curvature="0"
       style="fill:#e10f58;stroke-width:0.16011363"
       d="m 16.381532,275.22595 c -2.773051,0 -3.377637,0.0432 -3.896828,0.27801 -1.047473,0.47373 -1.977564,1.13129 -2.44924,2.09181 0.02145,-0.043 -0.1270987,0.44933 -0.2986477,0.99258 -0.164404,0.26446 -0.05066,5.89354 -0.05066,5.89354 l -0.05066,5.89357 0.4718987,1.00884 c 0.503886,1.07678 1.191182,1.72839 2.230957,2.11556 0.392715,0.14625 1.075986,0.20636 1.972964,0.17356 1.149955,-0.0421 1.49271,-0.12089 2.11619,-0.48628 0.409169,-0.23978 0.925519,-0.67409 1.147688,-0.96537 0.222171,-0.29128 1.383389,-3.08179 2.580271,-6.20096 2.751934,-7.17179 2.839844,-7.79236 1.345016,-9.49487 -1.0626,-1.21023 -1.415688,-1.29999 -5.118945,-1.29999 z m 0.653589,1.53547 c 2.204377,-0.008 2.712341,0.16508 3.334554,0.87375 0.855854,0.97476 0.78119,1.32003 -1.675252,7.75425 -1.192713,3.12409 -2.290936,5.81525 -2.440482,5.98049 -0.149551,0.16526 -0.466556,0.40104 -0.704562,0.52413 -0.238008,0.12307 -0.887701,0.2239 -1.443839,0.2239 -1.216147,0 -1.986481,-0.35845 -2.44736,-1.13893 -0.304256,-0.51525 -0.320228,-0.82977 -0.320228,-6.30635 0,-6.5368 0.01124,-6.60248 1.265584,-7.41871 0.634916,-0.41314 0.742428,-0.42856 3.377713,-0.47909 0.389437,-0.008 0.738961,-0.0124 1.053872,-0.0134 z"
       id="path884"
       inkscape:export-xdpi="41.919998"
       inkscape:export-ydpi="41.919998" />
    <path
       inkscape:connector-curvature="0"
       id="path882"
       d="m 31.352242,293.00871 c -0.08807,-0.0352 -0.421682,-0.10756 -0.74138,-0.16081 -0.883201,-0.14713 -2.404992,-1.21072 -2.984834,-2.08613 -0.754502,-1.13908 -1.043167,-2.31338 -0.965485,-3.9276 0.107363,-2.23106 1.095896,-3.91309 2.865903,-4.87644 1.533384,-0.83458 3.924123,-0.72211 5.262716,0.24756 0.352464,0.25532 0.732063,0.48263 0.843554,0.50511 0.15716,0.0317 0.220699,-0.80459 0.282767,-3.72178 l 0.08006,-3.76268 1.186744,-0.0476 c 0.841204,-0.0336 1.225104,0.0129 1.318485,0.16012 0.172272,0.27158 0.172055,16.95606 -1.61e-4,17.22765 -0.09266,0.14608 -0.461516,0.19377 -1.238428,0.16013 -1.099998,-0.0476 -1.106737,-0.0507 -1.153376,-0.52827 -0.08894,-0.91067 -0.157711,-0.94502 -0.78655,-0.39289 -0.325211,0.28554 -0.894458,0.65327 -1.264996,0.81717 -0.634751,0.28078 -2.354521,0.52647 -2.704951,0.38643 z m 2.788228,-2.80512 c 1.273201,-0.64954 1.872121,-1.82828 1.729292,-3.40342 -0.102592,-1.13142 -0.611139,-1.99265 -1.504609,-2.54812 -0.494872,-0.30766 -0.829525,-0.37997 -1.758238,-0.37997 -1.016184,0 -1.224827,0.0548 -1.829015,0.48034 -2.099775,1.47893 -1.874135,4.69193 0.414229,5.89833 0.689312,0.36339 2.190661,0.33937 2.948341,-0.0472 z m 11.249945,2.71269 c -3.215228,-0.67451 -5.319666,-3.70926 -4.68912,-6.76206 0.573222,-2.77528 2.646407,-4.56794 5.471898,-4.73151 2.331297,-0.13495 4.09576,0.83377 5.000989,2.74565 0.415418,0.87737 0.864643,3.26386 0.69674,3.70142 -0.07788,0.20295 -0.727708,0.24645 -4.221048,0.28263 l -4.128993,0.0428 -0.05284,0.37305 c -0.08105,0.57216 0.693568,1.60768 1.464425,1.95766 1.234485,0.56046 2.64662,0.35445 3.847188,-0.56126 0.29455,-0.22466 0.608447,-0.40849 0.69755,-0.40849 0.280622,0 1.649076,1.12511 1.649076,1.35583 0,0.35999 -1.271981,1.33976 -2.180718,1.67976 -1.013313,0.37914 -2.603215,0.52429 -3.555148,0.32458 z m 3.401122,-6.81974 c 0.648749,-0.24895 0.0082,-1.76877 -0.991702,-2.35269 -0.692101,-0.40421 -2.152903,-0.4222 -2.965669,-0.0364 -0.937155,0.4447 -1.787274,2.14064 -1.1932,2.38035 0.288855,0.11656 4.849475,0.1244 5.150571,0.009 z m 20.827872,6.75563 c -0.878287,-0.24632 -1.726217,-1.05458 -1.910963,-1.82153 -0.05747,-0.23859 -0.146925,-1.92577 -0.19879,-3.74933 l -0.0943,-3.31551 -1.059508,-0.0469 -1.05951,-0.0469 v -1.1208 -1.12079 l 1.080767,-0.0473 1.080768,-0.0473 v -1.4141 c 0,-1.02153 0.06266,-1.46612 0.225757,-1.60147 0.138025,-0.11456 0.651363,-0.16884 1.320939,-0.13969 l 1.095175,0.0477 0.08005,1.52108 0.08005,1.52108 1.441023,0.08 1.441022,0.08 v 1.12079 1.1208 l -1.441022,0.08 -1.441023,0.0801 -0.04427,2.44902 c -0.06762,3.74294 0.205095,4.29783 2.046799,4.1646 l 0.959545,-0.0694 v 1.0053 c 0,0.82465 -0.05477,1.03462 -0.304967,1.16851 -0.533438,0.28548 -2.433688,0.34423 -3.297595,0.10197 z m 9.554989,0.064 c -1.733709,-0.36371 -3.45654,-1.59994 -4.164994,-2.98861 -0.173857,-0.34078 -0.403689,-1.06482 -0.510751,-1.60898 -0.52162,-2.65135 0.80962,-5.24367 3.286548,-6.39989 0.860573,-0.4017 1.13588,-0.44843 2.641883,-0.44843 1.514512,0 1.780151,0.0457 2.679386,0.46105 1.976593,0.91296 3.395868,3.09392 3.403025,5.22937 0.005,1.61412 -1.027195,3.70819 -2.284509,4.63282 -1.320402,0.97104 -3.482486,1.45163 -5.050588,1.12267 z m 3.122234,-2.92399 c 1.706358,-1.1825 1.929387,-3.648 0.467299,-5.1659 -2.123126,-2.20418 -5.693424,-0.63987 -5.698346,2.49671 -0.0017,0.92385 0.733854,2.19742 1.583725,2.74311 0.670133,0.43027 0.840253,0.46839 1.874286,0.41995 0.927332,-0.0434 1.254617,-0.1346 1.773036,-0.49387 z m 9.658632,2.84067 c -2.609418,-0.72174 -4.139057,-3.06097 -3.965444,-6.06422 0.125063,-2.1632 1.144187,-3.87707 2.861121,-4.81154 1.650889,-0.89853 4.109608,-0.71706 5.525028,0.40776 0.328898,0.26138 0.656242,0.41699 0.727429,0.34581 0.07114,-0.0711 0.148825,-1.7844 0.172545,-3.80713 l 0.04309,-3.6777 h 1.280908 1.280902 v 8.72618 8.72621 h -1.200845 -1.200851 l -0.04687,-0.48035 c -0.09016,-0.9232 -0.166455,-0.96936 -0.718751,-0.43492 -1.118568,1.08239 -3.101286,1.5282 -4.758255,1.0699 z m 3.951063,-2.88836 c 1.799176,-1.4316 1.778379,-4.27821 -0.04057,-5.55161 -1.261455,-0.88313 -3.145072,-0.72595 -4.223439,0.35242 -1.278632,1.27864 -1.272752,3.76364 0.01159,4.91131 0.784949,0.70139 1.287233,0.86669 2.491134,0.81977 1.003702,-0.0391 1.226519,-0.10637 1.761251,-0.53189 z m 10.807613,2.97168 c -1.79478,-0.37651 -3.33309,-1.50458 -4.09078,-2.99978 -1.96411,-3.87599 0.5416,-8.24301 4.87356,-8.4938 3.07065,-0.17775 5.10402,1.54584 5.60077,4.74752 0.0969,0.62476 0.15298,1.29993 0.12454,1.50037 l -0.0517,0.36444 -4.16295,0.08 -4.16296,0.0801 0.0226,0.51123 c 0.0549,1.23909 1.48733,2.21627 3.08011,2.10106 0.85836,-0.0621 1.48272,-0.33157 2.61352,-1.12804 0.22554,-0.15885 0.39001,-0.10659 0.95644,0.30369 1.09367,0.79226 1.12226,0.94111 0.31909,1.66051 -1.19878,1.07374 -3.42907,1.62789 -5.12224,1.2727 z m 3.54476,-6.9227 c 0.22359,-0.16465 0.24389,-0.29698 0.11448,-0.74615 -0.66671,-2.314 -4.22757,-2.51412 -5.38295,-0.30254 -0.2795,0.53497 -0.29077,1.03585 -0.0257,1.14279 0.11008,0.0445 1.28515,0.0864 2.61128,0.0934 1.69476,0.009 2.49187,-0.0469 2.68292,-0.18751 z m 7.20689,6.92581 c -1.83587,-0.38501 -2.9343,-1.63268 -2.9343,-3.33296 0,-1.14914 0.54229,-2.07193 1.5882,-2.70256 1.05193,-0.63424 2.00378,-0.85501 4.25594,-0.98712 l 1.76125,-0.10336 0.049,-0.50458 c 0.0367,-0.37881 -0.0745,-0.64523 -0.4464,-1.06881 -0.90142,-1.02665 -2.8573,-1.10393 -4.44156,-0.17549 l -0.70021,0.41034 -0.65481,-0.6548 c -0.64934,-0.64933 -0.65228,-0.65766 -0.35264,-0.99608 0.16621,-0.18772 0.77051,-0.56239 1.34292,-0.83263 0.97053,-0.45821 1.16496,-0.49169 2.88204,-0.49619 2.0875,-0.005 2.86923,0.24094 3.7985,1.19733 0.92088,0.94776 1.01582,1.53764 0.96775,6.01286 l -0.043,3.99295 h -1.12079 -1.12081 l -0.0498,-0.60044 c -0.0273,-0.33023 -0.0879,-0.60043 -0.13465,-0.60043 -0.0467,0 -0.36607,0.24061 -0.70964,0.5347 -0.95399,0.81658 -2.58141,1.19158 -3.93721,0.90723 z m 3.30438,-2.28251 c 0.83634,-0.42886 1.28665,-1.18449 1.28665,-2.15904 v -0.68298 h -1.25545 c -2.69307,0 -4.12322,1.02763 -3.37523,2.42526 0.42552,0.79509 2.17984,1.01372 3.34403,0.41676 z m -66.808872,2.0209 c -0.06209,-0.0621 -0.112886,-2.50576 -0.112886,-5.4304 0,-4.38529 0.03966,-5.35043 0.22619,-5.50524 0.136038,-0.11291 0.630625,-0.16858 1.240881,-0.13969 l 1.014691,0.048 0.05144,0.5604 c 0.08058,0.87781 0.272903,0.91417 0.998326,0.18875 0.729089,-0.72908 1.418131,-0.98754 2.632844,-0.98754 1.200338,0 1.959109,0.27285 2.726883,0.98056 1.12277,1.03493 1.23807,1.54873 1.317577,5.87152 0.03775,2.05241 0.02368,3.91071 -0.03123,4.12958 -0.09694,0.38623 -0.136177,0.39656 -1.336037,0.35125 l -1.236161,-0.0466 -0.09058,-3.60256 c -0.09599,-3.81815 -0.165057,-4.17295 -0.950578,-4.88385 -0.507761,-0.45951 -2.043528,-0.44966 -2.669744,0.0172 -1.005768,0.7497 -1.084751,1.08291 -1.172566,4.94678 l -0.08006,3.52251 -1.208052,0.0462 c -0.664428,0.0255 -1.25885,-0.005 -1.320937,-0.0667 z m 73.135112,-0.0927 c -0.0436,-0.11381 -0.0606,-4.06166 -0.0376,-8.773 l 0.0417,-8.56608 h 1.28091 1.2809 v 8.72619 8.7262 l -1.24329,0.0467 c -0.90377,0.0341 -1.26495,-0.01 -1.32252,-0.16012 z"
       style="fill:#ffffff;stroke-width:0.16011365"
       inkscape:export-xdpi="41.919998"
       inkscape:export-ydpi="41.919998" />
  </g>
</svg>
